<svg xmlns="http://www.w3.org/2000/svg" width="1600" height="1000" viewBox="0 0 1600 1000" fill="none">
  <defs>
    <linearGradient id="bg" x1="0" y1="0" x2="1600" y2="1000" gradientUnits="userSpaceOnUse">
      <stop stop-color="#f6f1ea"/>
      <stop offset="0.55" stop-color="#efe7dd"/>
      <stop offset="1" stop-color="#e6f3f0"/>
    </linearGradient>
    <linearGradient id="accent" x1="420" y1="210" x2="1240" y2="760" gradientUnits="userSpaceOnUse">
      <stop stop-color="#0f766e" stop-opacity="0.18"/>
      <stop offset="1" stop-color="#84cc16" stop-opacity="0.10"/>
    </linearGradient>
    <filter id="shadow" x="0" y="0" width="200%" height="200%">
      <feDropShadow dx="0" dy="18" stdDeviation="24" flood-color="#0b0b0b" flood-opacity="0.18"/>
    </filter>
    <pattern id="dots" width="18" height="18" patternUnits="userSpaceOnUse">
      <circle cx="2" cy="2" r="1.2" fill="#1f1b16" fill-opacity="0.12"/>
    </pattern>
  </defs>

  <rect width="1600" height="1000" rx="56" fill="url(#bg)"/>
  <rect x="70" y="70" width="1460" height="860" rx="44" fill="#ffffff" fill-opacity="0.68" stroke="#1f1b16" stroke-opacity="0.10" filter="url(#shadow)"/>

  <rect x="110" y="110" width="1380" height="86" rx="26" fill="#ffffff" fill-opacity="0.85" stroke="#1f1b16" stroke-opacity="0.10"/>
  <rect x="140" y="137" width="180" height="32" rx="16" fill="#1f1b16" fill-opacity="0.08"/>
  <rect x="350" y="137" width="120" height="32" rx="16" fill="#1f1b16" fill-opacity="0.06"/>
  <rect x="480" y="137" width="120" height="32" rx="16" fill="#1f1b16" fill-opacity="0.06"/>
  <rect x="610" y="137" width="120" height="32" rx="16" fill="#1f1b16" fill-opacity="0.06"/>
  <rect x="1350" y="132" width="120" height="42" rx="21" fill="#0f766e" fill-opacity="0.22"/>

  <rect x="110" y="220" width="420" height="710" rx="34" fill="#ffffff" fill-opacity="0.72" stroke="#1f1b16" stroke-opacity="0.10"/>
  <rect x="570" y="220" width="920" height="340" rx="34" fill="url(#accent)" stroke="#1f1b16" stroke-opacity="0.10"/>
  <rect x="570" y="600" width="440" height="330" rx="34" fill="#ffffff" fill-opacity="0.72" stroke="#1f1b16" stroke-opacity="0.10"/>
  <rect x="1050" y="600" width="440" height="330" rx="34" fill="#ffffff" fill-opacity="0.72" stroke="#1f1b16" stroke-opacity="0.10"/>

  <rect x="150" y="270" width="340" height="54" rx="18" fill="#1f1b16" fill-opacity="0.05"/>
  <rect x="150" y="340" width="340" height="54" rx="18" fill="#1f1b16" fill-opacity="0.05"/>
  <rect x="150" y="410" width="340" height="54" rx="18" fill="#1f1b16" fill-opacity="0.05"/>
  <rect x="150" y="480" width="340" height="54" rx="18" fill="#1f1b16" fill-opacity="0.05"/>
  <rect x="150" y="550" width="340" height="54" rx="18" fill="#1f1b16" fill-opacity="0.05"/>
  <rect x="150" y="620" width="340" height="54" rx="18" fill="#1f1b16" fill-opacity="0.05"/>
  <rect x="150" y="690" width="220" height="20" rx="10" fill="#1f1b16" fill-opacity="0.10"/>
  <rect x="150" y="725" width="280" height="20" rx="10" fill="#1f1b16" fill-opacity="0.07"/>

  <rect x="610" y="260" width="840" height="260" rx="26" fill="url(#dots)"/>

  <rect x="610" y="640" width="220" height="22" rx="11" fill="#1f1b16" fill-opacity="0.10"/>
  <rect x="610" y="676" width="300" height="18" rx="9" fill="#1f1b16" fill-opacity="0.07"/>
  <rect x="610" y="714" width="320" height="18" rx="9" fill="#1f1b16" fill-opacity="0.07"/>

  <rect x="1090" y="640" width="220" height="22" rx="11" fill="#1f1b16" fill-opacity="0.10"/>
  <rect x="1090" y="676" width="300" height="18" rx="9" fill="#1f1b16" fill-opacity="0.07"/>
  <rect x="1090" y="714" width="320" height="18" rx="9" fill="#1f1b16" fill-opacity="0.07"/>

  <g fill="#1f1b16" fill-opacity="0.06">
    <rect x="610" y="760" width="18" height="18" rx="5"/>
    <rect x="640" y="760" width="210" height="18" rx="9"/>
    <rect x="610" y="792" width="18" height="18" rx="5"/>
    <rect x="640" y="792" width="250" height="18" rx="9"/>
    <rect x="610" y="824" width="18" height="18" rx="5"/>
    <rect x="640" y="824" width="190" height="18" rx="9"/>
  </g>
  <g fill="#1f1b16" fill-opacity="0.06">
    <rect x="1090" y="760" width="18" height="18" rx="5"/>
    <rect x="1120" y="760" width="210" height="18" rx="9"/>
    <rect x="1090" y="792" width="18" height="18" rx="5"/>
    <rect x="1120" y="792" width="250" height="18" rx="9"/>
    <rect x="1090" y="824" width="18" height="18" rx="5"/>
    <rect x="1120" y="824" width="190" height="18" rx="9"/>
  </g>

  <rect x="1260" y="252" width="176" height="36" rx="18" fill="#0f766e" fill-opacity="0.16"/>
</svg>
